<svg xmlns="http://www.w3.org/2000/svg" xmlns:xlink="http://www.w3.org/1999/xlink" width="500" zoomAndPan="magnify" viewBox="0 0 375 374.999991" height="500" preserveAspectRatio="xMidYMid meet" version="1.0"><defs><clipPath id="6b37e6ed3f"><path d="M 135.625 117.496094 L 239.125 117.496094 L 239.125 229.246094 L 135.625 229.246094 Z M 135.625 117.496094 " clip-rule="nonzero"/></clipPath><clipPath id="7316e26d91"><path d="M 178 117.496094 L 239.125 117.496094 L 239.125 229.246094 L 178 229.246094 Z M 178 117.496094 " clip-rule="nonzero"/></clipPath><clipPath id="3a4e530286"><path d="M 135.625 117.496094 L 165 117.496094 L 165 229.246094 L 135.625 229.246094 Z M 135.625 117.496094 " clip-rule="nonzero"/></clipPath></defs><g clip-path="url(#6b37e6ed3f)"><path fill="#fbb02e" d="M 239.121094 229.246094 L 207.003906 229.246094 C 175.328125 211.835938 175.414062 184.613281 177.421875 172.167969 C 177.914062 172.234375 178.425781 172.253906 178.9375 172.253906 C 187.566406 172.253906 194.542969 165.257812 194.542969 156.609375 C 194.542969 147.960938 187.566406 140.964844 178.9375 140.964844 C 170.3125 140.964844 163.335938 147.960938 163.335938 156.609375 C 163.335938 161.238281 165.320312 165.394531 168.503906 168.210938 C 163.515625 179.496094 156.605469 202.894531 169.21875 229.246094 L 149.21875 229.246094 C 141.839844 229.246094 135.84375 223.234375 135.84375 215.835938 L 135.84375 130.90625 C 135.84375 123.507812 141.839844 117.496094 149.21875 117.496094 L 193.539062 117.496094 C 215.117188 117.496094 233.371094 134.640625 233.550781 156.296875 C 233.640625 167.226562 229.246094 177.105469 222.113281 184.257812 C 217.277344 189.105469 211.214844 192.679688 204.414062 194.449219 Z M 239.121094 229.246094 " fill-opacity="1" fill-rule="evenodd"/></g><g clip-path="url(#7316e26d91)"><path fill="#d78628" d="M 239.121094 229.246094 L 223.644531 229.246094 L 188.9375 194.449219 C 195.75 192.679688 201.785156 189.109375 206.644531 184.269531 C 213.765625 177.097656 218.164062 167.226562 218.070312 156.300781 C 217.882812 134.632812 199.648438 117.496094 178.070312 117.496094 L 193.550781 117.496094 C 215.128906 117.496094 233.363281 134.632812 233.550781 156.300781 C 233.640625 167.226562 229.246094 177.097656 222.125 184.269531 C 217.261719 189.109375 211.226562 192.679688 204.417969 194.449219 Z M 239.121094 229.246094 " fill-opacity="1" fill-rule="evenodd"/></g><g clip-path="url(#3a4e530286)"><path fill="#d78628" d="M 164.480469 229.246094 L 149.003906 229.246094 C 141.632812 229.246094 135.628906 223.226562 135.628906 215.835938 L 135.628906 130.90625 C 135.628906 123.519531 141.632812 117.496094 149 117.496094 L 164.480469 117.496094 C 157.113281 117.496094 151.105469 123.519531 151.105469 130.90625 L 151.105469 215.835938 C 151.105469 223.226562 157.113281 229.246094 164.480469 229.246094 " fill-opacity="1" fill-rule="evenodd"/></g></svg>