<svg xmlns="http://www.w3.org/2000/svg" xmlns:xlink="http://www.w3.org/1999/xlink" width="500" zoomAndPan="magnify" viewBox="0 0 375 374.999991" height="500" preserveAspectRatio="xMidYMid meet" version="1.0"><defs><clipPath id="a8246852a4"><path d="M 59.441406 42.855469 L 315.191406 42.855469 L 315.191406 318.855469 L 59.441406 318.855469 Z M 59.441406 42.855469 " clip-rule="nonzero"/></clipPath><clipPath id="f68938ec07"><path d="M 164 42.855469 L 315.191406 42.855469 L 315.191406 318.855469 L 164 318.855469 Z M 164 42.855469 " clip-rule="nonzero"/></clipPath><clipPath id="f79a0b1b31"><path d="M 59.441406 42.855469 L 131 42.855469 L 131 318.855469 L 59.441406 318.855469 Z M 59.441406 42.855469 " clip-rule="nonzero"/></clipPath></defs><g clip-path="url(#a8246852a4)"><path fill="#fbb02e" d="M 315.1875 318.855469 L 235.820312 318.855469 C 157.550781 275.851562 157.765625 208.621094 162.726562 177.875 C 163.941406 178.039062 165.207031 178.09375 166.472656 178.09375 C 187.789062 178.09375 205.027344 160.816406 205.027344 139.457031 C 205.027344 118.09375 187.789062 100.816406 166.472656 100.816406 C 145.15625 100.816406 127.917969 118.09375 127.917969 139.457031 C 127.917969 150.882812 132.820312 161.148438 140.691406 168.105469 C 128.355469 195.980469 111.28125 253.773438 142.457031 318.855469 L 93.027344 318.855469 C 74.804688 318.855469 59.984375 304.003906 59.984375 285.734375 L 59.984375 75.976562 C 59.984375 57.703125 74.804688 42.855469 93.027344 42.855469 L 202.550781 42.855469 C 255.867188 42.855469 300.976562 85.195312 301.417969 138.683594 C 301.640625 165.675781 290.789062 190.074219 273.15625 207.738281 C 261.210938 219.71875 246.226562 228.546875 229.425781 232.90625 Z M 315.1875 318.855469 " fill-opacity="1" fill-rule="evenodd"/></g><g clip-path="url(#f68938ec07)"><path fill="#d78628" d="M 315.1875 318.855469 L 276.9375 318.855469 L 191.179688 232.910156 C 208.011719 228.542969 222.925781 219.726562 234.9375 207.765625 C 252.535156 190.054688 263.398438 165.675781 263.167969 138.6875 C 262.710938 85.175781 217.648438 42.855469 164.332031 42.855469 L 202.582031 42.855469 C 255.898438 42.855469 300.957031 85.175781 301.417969 138.6875 C 301.648438 165.675781 290.785156 190.054688 273.191406 207.765625 C 261.175781 219.722656 246.261719 228.542969 229.429688 232.910156 Z M 315.1875 318.855469 " fill-opacity="1" fill-rule="evenodd"/></g><g clip-path="url(#f79a0b1b31)"><path fill="#d78628" d="M 130.746094 318.855469 L 92.5 318.855469 C 74.289062 318.855469 59.449219 303.980469 59.449219 285.734375 L 59.449219 75.976562 C 59.449219 57.730469 74.289062 42.855469 92.496094 42.855469 L 130.746094 42.855469 C 112.539062 42.855469 97.699219 57.730469 97.699219 75.976562 L 97.699219 285.734375 C 97.699219 303.980469 112.539062 318.855469 130.746094 318.855469 " fill-opacity="1" fill-rule="evenodd"/></g></svg>